<svg width="52" height="43" viewBox="0 0 52 43" fill="none" xmlns="http://www.w3.org/2000/svg">
<g clip-path="url(#clip0_3_31)">
<path fill-rule="evenodd" clip-rule="evenodd" d="M10.9289 36.1595H40.2237L40.3868 34.8005C40.3893 34.7807 40.4269 34.4711 40.4902 33.9483C40.803 31.3673 41.7459 23.5873 42.223 19.7876C44.02 19.3799 46.0887 18.6974 48.3719 17.2387C50.036 16.1786 51.0447 14.5327 51.1474 12.7267C51.241 11.0716 50.5313 9.50422 49.2025 8.42605C48.0005 7.45056 46.4149 7.04285 44.8535 7.30861C43.4099 7.55324 42.1717 8.35357 41.462 9.5012C40.0848 11.724 39.6952 15.0431 39.4627 17.0242C39.4612 17.0406 39.4589 17.057 39.4567 17.0733C39.4544 17.0902 39.4521 17.107 39.4506 17.1239C38.2969 17.2175 36.4547 17.2205 34.3043 16.6739C31.7494 16.0246 29.5145 14.8045 27.6511 13.0377C28.9618 11.3797 29.895 9.73073 30.4296 8.12102C31.088 6.14286 31.091 4.33383 30.4417 2.88418C29.6202 1.05099 27.8474 0 25.5763 0C23.3052 0 21.5324 1.05099 20.7109 2.88418C20.0616 4.33383 20.0646 6.14286 20.723 8.12102C21.2576 9.73073 22.1908 11.3797 23.5015 13.0377C21.6381 14.8045 19.4032 16.0246 16.8482 16.6739C14.6979 17.2205 12.8557 17.2175 11.702 17.1239C11.7005 17.1073 11.6982 17.0899 11.6959 17.0725C11.6937 17.0552 11.6914 17.0378 11.6899 17.0212C11.4574 15.04 11.0678 11.724 9.69365 9.5012C8.98392 8.35357 7.74569 7.55324 6.30209 7.30861C4.7407 7.04285 3.15515 7.45056 1.95316 8.42605C0.624318 9.50422 -0.0854027 11.0716 0.00822 12.7267C0.107883 14.5327 1.11961 16.1756 2.78066 17.2387C5.06385 18.6974 7.13261 19.3799 8.92956 19.7876C9.43486 23.7877 10.4523 32.2072 10.7071 34.3151C10.7431 34.6136 10.7639 34.7855 10.7658 34.8005L10.9289 36.1595ZM37.4905 33.076H13.662C13.3298 30.3217 12.5658 24.0127 12.0946 20.2437C13.508 20.3071 15.4258 20.2225 17.6093 19.6668C20.6656 18.8907 23.3384 17.432 25.5763 15.3239C27.8142 17.432 30.487 18.8907 33.5433 19.6668C35.7298 20.2225 37.6476 20.3071 39.058 20.2437C38.5899 24.0127 37.8228 30.3187 37.4905 33.076ZM45.37 10.3498C45.5089 10.3257 45.6508 10.3136 45.7897 10.3136H45.7928C46.3334 10.3136 46.8558 10.4888 47.2636 10.821C47.8193 11.274 48.1062 11.8871 48.0699 12.5515C48.0246 13.3579 47.5293 14.1159 46.7139 14.6384C45.4032 15.4749 44.1378 16.0578 42.6368 16.4927C42.8542 14.7803 43.2317 12.5062 44.0864 11.123C44.331 10.7304 44.7992 10.4465 45.37 10.3498ZM3.89507 10.821C4.30581 10.4918 4.82526 10.3136 5.36586 10.3136H5.36888C5.5078 10.3136 5.64673 10.3257 5.78867 10.3498C6.35947 10.4465 6.82758 10.7274 7.07221 11.123C7.92689 12.5032 8.3044 14.7773 8.52185 16.4927C7.02087 16.0578 5.75545 15.4749 4.44473 14.6384C3.62931 14.1159 3.13401 13.3548 3.08871 12.5515C3.04945 11.8871 3.33636 11.274 3.89507 10.821ZM23.5287 4.14356C23.8458 3.43988 24.5344 3.08351 25.5793 3.08351C26.6243 3.08351 27.3128 3.43988 27.63 4.14356C28.3638 5.77743 27.2434 8.38377 25.5793 10.6549C23.9152 8.38377 22.7948 5.78045 23.5287 4.14356Z" fill="#0FA7E6"/>
<path d="M10.8174 39.916H40.3418V42.9995H10.8174V39.916Z" fill="#0FA7E6"/>
</g>
<defs>
<clipPath id="clip0_3_31">
<rect width="52" height="43" fill="white"/>
</clipPath>
</defs>
</svg>
